<svg xmlns="http://www.w3.org/2000/svg" xmlns:xlink="http://www.w3.org/1999/xlink" width="129" height="129" viewBox="0 0 129 129">
  <defs>
    <filter id="Ellipse_164" x="0" y="0" width="129" height="129" filterUnits="userSpaceOnUse">
      <feOffset dy="3" input="SourceAlpha"/>
      <feGaussianBlur stdDeviation="3" result="blur"/>
      <feFlood flood-opacity="0.29"/>
      <feComposite operator="in" in2="blur"/>
      <feComposite in="SourceGraphic"/>
    </filter>
  </defs>
  <g id="Group_52" data-name="Group 52" transform="translate(10399 -12851)">
    <g transform="matrix(1, 0, 0, 1, -10399, 12851)" filter="url(#Ellipse_164)">
      <g id="Ellipse_164-2" data-name="Ellipse 164" transform="translate(9 6)" fill="#dc1f29" stroke="#fff" stroke-width="4">
        <circle cx="55.5" cy="55.5" r="55.5" stroke="none"/>
        <circle cx="55.5" cy="55.5" r="53.5" fill="none"/>
      </g>
    </g>
    <path id="Path_423" data-name="Path 423" d="M7-19.629V-3.662h9.814V0H2.93V-19.629ZM24.053-22.5a2.5,2.5,0,0,1,1.816.747,2.4,2.4,0,0,1,.762,1.772,2.415,2.415,0,0,1-.762,1.758,2.48,2.48,0,0,1-1.816.762,2.432,2.432,0,0,1-1.8-.762A2.437,2.437,0,0,1,21.5-19.98a2.422,2.422,0,0,1,.747-1.772A2.455,2.455,0,0,1,24.053-22.5Zm2.168,7.705V0H22.5V-11.631H20.127v-3.164Zm9.463-.381a7.666,7.666,0,0,1,2.549.41,6.02,6.02,0,0,1,1.816.938v3.281a11.043,11.043,0,0,0-1.714-.908,5.2,5.2,0,0,0-2.095-.439,2.692,2.692,0,0,0-1.67.469,1.372,1.372,0,0,0-.615,1.113,1.275,1.275,0,0,0,.352.864,2.938,2.938,0,0,0,1.348.688l1.67.557q3.369,1,3.369,3.9a4.057,4.057,0,0,1-.776,2.446,5.314,5.314,0,0,1-2.08,1.685,6.677,6.677,0,0,1-2.886.615,9.112,9.112,0,0,1-2.9-.469,7.528,7.528,0,0,1-2.139-1.025V-4.307a8.529,8.529,0,0,0,1.348.732A10.514,10.514,0,0,0,32.9-3a6.246,6.246,0,0,0,1.553.22,3.112,3.112,0,0,0,1.714-.4,1.272,1.272,0,0,0,.6-1.128,1,1,0,0,0-.5-.879A6.686,6.686,0,0,0,34.8-5.83l-1.816-.645a4.163,4.163,0,0,1-2.344-1.582A4.474,4.474,0,0,1,30-10.488a4.2,4.2,0,0,1,.718-2.446,4.87,4.87,0,0,1,2.007-1.641A6.932,6.932,0,0,1,35.684-15.176ZM49.219-19.1v4.307h4.1v3.105h-4.1V-5.3a2.454,2.454,0,0,0,.454,1.567,1.635,1.635,0,0,0,1.362.571A4.662,4.662,0,0,0,52.4-3.34a4.27,4.27,0,0,0,1.069-.5V-.879a4.7,4.7,0,0,1-1.392.938A5.052,5.052,0,0,1,49.98.439,4.325,4.325,0,0,1,46.743-.835a4.8,4.8,0,0,1-1.245-3.5v-7.354H42.832v-1.9a6.176,6.176,0,0,0,2.593-1.875,10.106,10.106,0,0,0,1.89-3.633ZM63.6-15.176a7.144,7.144,0,0,1,3.735.938,6.222,6.222,0,0,1,2.4,2.593,8.379,8.379,0,0,1,.835,3.823V-6.24H59.854a3.882,3.882,0,0,0,1.465,2.4,4.546,4.546,0,0,0,2.871.908,6.581,6.581,0,0,0,2.93-.645,10.128,10.128,0,0,0,2.109-1.318L69.2-1.436A8.665,8.665,0,0,1,67.1-.19a7.338,7.338,0,0,1-3.062.63,8.126,8.126,0,0,1-4-1,7.7,7.7,0,0,1-2.871-2.725A7.362,7.362,0,0,1,56.1-7.236a8.177,8.177,0,0,1,.967-3.955,7.8,7.8,0,0,1,2.666-2.886A6.966,6.966,0,0,1,63.6-15.176Zm-.088,3.252a3.319,3.319,0,0,0-2.314.85,4.4,4.4,0,0,0-1.289,2.285H67a3.035,3.035,0,0,0-1.172-2.358A3.818,3.818,0,0,0,63.516-11.924Zm24.521-9.17V0H84.316V-2.49A5.971,5.971,0,0,1,82.441-.425,4.868,4.868,0,0,1,79.57.439a6.273,6.273,0,0,1-3.3-.908,6.536,6.536,0,0,1-2.417-2.637,8.91,8.91,0,0,1-.908-4.189,8.969,8.969,0,0,1,.923-4.219,6.766,6.766,0,0,1,2.49-2.71,6.558,6.558,0,0,1,3.472-.952,5.866,5.866,0,0,1,2.432.557,5.926,5.926,0,0,1,2.051,1.494v-7.969ZM80.6-11.514a3.345,3.345,0,0,0-2.007.6,4.121,4.121,0,0,0-1.3,1.553,4.612,4.612,0,0,0-.469,2.065,4.2,4.2,0,0,0,1.011,2.842,3.365,3.365,0,0,0,2.681,1.172,3.509,3.509,0,0,0,1.86-.527,4.023,4.023,0,0,0,1.406-1.479,4.579,4.579,0,0,0,.542-2.3V-9.7A6.412,6.412,0,0,0,82.6-11.03,4.26,4.26,0,0,0,80.6-11.514Z" transform="translate(-10379 12923)" fill="#fff"/>
  </g>
</svg>
