<svg xmlns="http://www.w3.org/2000/svg" width="248.07" height="106.518" viewBox="0 0 248.07 106.518"><g transform="translate(0 0)"><path d="M35.792,81.374c13.15,0,24,4.609,35.194,9.368,10.99,4.674,22.353,9.506,36.737,10.274,21.9,1.173,30.638-10.765,34.123-20.984a1.355,1.355,0,0,1,1.615-.881,13.125,13.125,0,0,0,2.178.357,12.928,12.928,0,0,0,1.969-25.78l-.245-.012A1.361,1.361,0,0,1,146.139,52a12.925,12.925,0,0,0-24.549-7.99,1.377,1.377,0,0,1-1.434.867c-.182-.021-.354-.042-.535-.055a12.922,12.922,0,0,0-13.867,11.91A12.989,12.989,0,0,0,112.17,68.91a1.359,1.359,0,0,1,.535,1.777c-3.884,7.93-14.53,19.7-42.182,9.455-25.039-9.281-45.885-1.32-57.7,5.668a65.33,65.33,0,0,1,22.97-4.437Zm74.917,22.447q-1.525,0-3.131-.085c-14.856-.794-26.455-5.721-37.663-10.487C50.848,85.142,32.834,77.483,2,93.671A1.364,1.364,0,0,1,.408,91.49c.3-.292,30.393-28.972,71.06-13.9,23.351,8.655,33.669,1.249,38.234-7.023a15.758,15.758,0,0,1-6.67-14.035,15.665,15.665,0,0,1,16.417-14.443,15.731,15.731,0,0,1,15.4-9.06A15.664,15.664,0,0,1,149.27,49.82c-.036.447-.091.9-.163,1.345a15.65,15.65,0,0,1-3.666,31.058c-.472-.035-.953-.094-1.425-.175-3.848,10.326-12.751,21.772-33.306,21.774Z" transform="translate(0 -3.05)" fill="#fff"/><path d="M159.92,106.518q-1.28,0-2.586-.1a33.6,33.6,0,0,1-21.917-10.446,1.361,1.361,0,1,1,1.978-1.87A30.962,30.962,0,0,0,186.238,89.1l.6-.967,1.053.417a31.089,31.089,0,0,0,9.03,2.068,30.724,30.724,0,0,0,22.834-7.66l.717-.629.835.453a21.129,21.129,0,1,0,11.662-39.652,21.172,21.172,0,0,0-6.208.443l-.926.206-.508-.8A30.972,30.972,0,0,0,191.81,29.667l-1.543.383-.145-1.585a21.121,21.121,0,0,0-36.138-12.9l-1.125,1.146-.944-1.3a30.977,30.977,0,0,0-54.9,26.4l.59,2.144L95.431,43.5a12.78,12.78,0,0,0-5.944,24.85l1.334.358-.381,1.332a14.106,14.106,0,0,0-.49,2.711,13.93,13.93,0,0,0,.817,5.809,1.36,1.36,0,1,1-2.559.924,16.59,16.59,0,0,1-.971-6.939,18.168,18.168,0,0,1,.272-1.962,15.506,15.506,0,0,1,6.416-30.042,33.693,33.693,0,0,1,59.244-27.963,23.849,23.849,0,0,1,39.487,14.11A33.689,33.689,0,0,1,227.1,40.726a23.854,23.854,0,1,1-6.253,44.881,33.4,33.4,0,0,1-24.122,7.723,33.771,33.771,0,0,1-8.776-1.856,33.572,33.572,0,0,1-28.025,15.043Z" transform="translate(-7.147)" fill="#fff"/><path d="M156.756,83.941c-.045,0-.082,0-.118,0a16.057,16.057,0,0,1-14.675-17.3,13.118,13.118,0,0,1,14.13-11.991,10.748,10.748,0,0,1,9.838,11.6,8.878,8.878,0,0,1-9.565,8.122,7.369,7.369,0,0,1-6.752-7.951,6.189,6.189,0,0,1,6.652-5.648,1.361,1.361,0,1,1-.218,2.714,3.447,3.447,0,0,0-3.721,3.156,4.651,4.651,0,0,0,4.256,5.015,6.142,6.142,0,0,0,6.634-5.631,8.038,8.038,0,0,0-7.351-8.662,10.387,10.387,0,0,0-11.19,9.5,13.333,13.333,0,0,0,12.188,14.362,1.361,1.361,0,0,1-.109,2.718Z" transform="translate(-13.122 -5.049)" fill="#fff"/><path d="M134.211,77.92c-.027,0-.045,0-.064,0-12.188-.607-16.1-6.151-16.263-6.387a1.361,1.361,0,0,1,2.242-1.545c.073.1,3.512,4.683,14.148,5.213a1.361,1.361,0,0,1-.064,2.721Z" transform="translate(-10.878 -6.418)" fill="#fff"/><path d="M100.338,93.162a42.084,42.084,0,0,1-11.226-1.48,1.36,1.36,0,0,1,.808-2.6c1.007.314,24.794,7.464,35.094-12.972a1.362,1.362,0,0,1,2.432,1.225C120.866,90.4,109.1,93.162,100.338,93.162Z" transform="translate(-8.152 -6.969)" fill="#fff"/><path d="M117.5,100.64c-.908,0-1.833-.029-2.8-.09a1.365,1.365,0,0,1-1.271-1.444,1.349,1.349,0,0,1,1.443-1.273c22.843,1.447,29.567-15.9,29.84-16.634a1.364,1.364,0,0,1,2.559.945c-.073.192-7.1,18.5-29.776,18.5Z" transform="translate(-10.489 -7.426)" fill="#fff"/><path d="M226.7,68.25a14.2,14.2,0,0,1-7.832-2.348,11.715,11.715,0,0,1-3.34-16.209,9.64,9.64,0,0,1,13.341-2.752,7.974,7.974,0,0,1,2.278,11.053,6.665,6.665,0,0,1-9.221,1.9,5.6,5.6,0,0,1-1.6-7.752,1.363,1.363,0,0,1,2.278,1.5,2.842,2.842,0,0,0-.417,2.161,2.877,2.877,0,0,0,1.234,1.821,3.947,3.947,0,0,0,5.454-1.124,5.262,5.262,0,0,0-1.507-7.282,6.92,6.92,0,0,0-9.574,1.974,8.99,8.99,0,0,0,2.568,12.439,11.578,11.578,0,0,0,16.018-3.3,14.816,14.816,0,0,0-4.229-20.495,1.361,1.361,0,1,1,1.5-2.274,17.543,17.543,0,0,1,5.01,24.266A14.31,14.31,0,0,1,226.7,68.25Z" transform="translate(-19.752 -3.452)" fill="#fff"/><path d="M198.416,98.558a1.421,1.421,0,0,1-.481-.087A11.7,11.7,0,0,1,191.092,83.4,9.638,9.638,0,0,1,203.5,77.766a7.98,7.98,0,0,1,4.665,10.273,6.65,6.65,0,0,1-8.567,3.894,5.6,5.6,0,0,1-3.276-7.206,1.362,1.362,0,0,1,2.55.957,2.872,2.872,0,0,0,1.679,3.7,3.937,3.937,0,0,0,5.064-2.3,5.253,5.253,0,0,0-3.067-6.768,6.914,6.914,0,0,0-8.9,4.043A8.988,8.988,0,0,0,198.9,95.921a1.361,1.361,0,0,1-.481,2.636Z" transform="translate(-17.6 -7.134)" fill="#fff"/><path d="M96.511,56.929a1.354,1.354,0,0,1-1.334-1.11C95.15,55.71,93.271,44.9,105.55,39.136A1.361,1.361,0,0,1,106.7,41.6c-10.382,4.874-8.867,13.628-8.858,13.716a1.355,1.355,0,0,1-1.08,1.589,1.409,1.409,0,0,1-.254.024Z" transform="translate(-8.79 -3.607)" fill="#fff"/><path d="M23.76,84.36a1.361,1.361,0,0,1-1.089-2.182c.463-.605,11.417-14.805,28.415-13.3L52.42,69c5.128.481,12.878,1.205,18.641-1.232a1.362,1.362,0,1,1,1.062,2.508c-6.389,2.7-14.557,1.941-19.957,1.436l-1.316-.122c-15.483-1.366-25.9,12.1-26.01,12.235a1.348,1.348,0,0,1-1.08.538Z" transform="translate(-2.071 -6.256)" fill="#fff"/><path d="M48.231,69.16a1.362,1.362,0,0,1-.281-2.693c5.427-1.169,7.26-2.023,17.18-15.293,13.186-17.633,28.306-6.867,28.451-6.757a1.361,1.361,0,1,1-1.606,2.2c-.535-.393-13.123-9.239-24.658,6.19-10,13.372-12.333,14.933-18.795,16.323a1.312,1.312,0,0,1-.29.032Z" transform="translate(-4.335 -3.797)" fill="#fff"/></g></svg>