<svg xmlns="http://www.w3.org/2000/svg" width="225.42" height="216.98" viewBox="0 0 225.42 216.98"><path d="M191.386,129.581a27.2,27.2,0,0,1-33.65-18.65,22.1,22.1,0,0,1,15.135-27.31,18,18,0,0,1,22.234,12.325,14.694,14.694,0,0,1-10.073,18.177,12.083,12.083,0,0,1-14.932-8.274,9.971,9.971,0,0,1,6.835-12.334A8.291,8.291,0,0,1,187.194,99.2a6.958,6.958,0,0,1-4.764,8.595,1.573,1.573,0,1,1-.866-3.024,3.808,3.808,0,0,0,2.605-4.7,5.15,5.15,0,0,0-6.366-3.528,6.827,6.827,0,0,0-4.679,8.444,8.936,8.936,0,0,0,11.041,6.118,11.551,11.551,0,0,0,7.919-14.287,14.85,14.85,0,0,0-18.347-10.166,18.934,18.934,0,0,0-12.977,23.418,24.085,24.085,0,0,0,29.758,16.494,30.465,30.465,0,0,0,20.887-37.686,38.479,38.479,0,0,0-47.595-26.377,1.573,1.573,0,0,1-.866-3.024A41.62,41.62,0,0,1,214.427,88a33.609,33.609,0,0,1-23.041,41.577Zm-1.851,50.484a1.573,1.573,0,0,1,2.935,1.134A41.545,41.545,0,0,1,138.635,205a33.61,33.61,0,0,1-19.221-43.474A27.233,27.233,0,0,1,154.6,145.97a22.1,22.1,0,0,1,12.626,28.557,17.991,17.991,0,0,1-23.25,10.28,14.711,14.711,0,0,1-8.4-19.007,12.067,12.067,0,0,1,15.613-6.9,9.972,9.972,0,0,1,5.7,12.9,8.295,8.295,0,0,1-10.725,4.742,6.955,6.955,0,0,1-3.975-8.985,1.572,1.572,0,1,1,2.932,1.134A3.8,3.8,0,0,0,147.3,173.6a5.143,5.143,0,0,0,6.656-2.943,6.822,6.822,0,0,0-3.9-8.828,8.923,8.923,0,0,0-11.542,5.1,11.563,11.563,0,0,0,6.6,14.941,14.85,14.85,0,0,0,19.184-8.483A18.953,18.953,0,0,0,153.463,148.9a24.056,24.056,0,0,0-31.116,13.757,30.465,30.465,0,0,0,17.425,39.408,38.474,38.474,0,0,0,49.764-22.005ZM81.256,111.986a31.454,31.454,0,1,1,31.454,31.452A31.454,31.454,0,0,1,81.256,111.986Zm18.325,88.775a41.334,41.334,0,0,1-23.089,7.064,42.153,42.153,0,0,1-8.145-.8,41.362,41.362,0,0,1-26.514-17.658,33.651,33.651,0,0,1,9.2-46.635A27.238,27.238,0,0,1,88.78,150.18a22.08,22.08,0,0,1-6.046,30.632,17.976,17.976,0,0,1-24.94-4.923,14.692,14.692,0,0,1,4.023-20.39A12.087,12.087,0,0,1,78.565,158.8a9.984,9.984,0,0,1-2.732,13.836,8.3,8.3,0,0,1-11.5-2.27,6.957,6.957,0,0,1,1.9-9.641,1.573,1.573,0,0,1,1.753,2.612,3.808,3.808,0,0,0-1.042,5.276,5.152,5.152,0,0,0,7.14,1.408,6.83,6.83,0,0,0,1.868-9.469,8.934,8.934,0,0,0-12.384-2.446,11.548,11.548,0,0,0-3.161,16.027,14.829,14.829,0,0,0,20.577,4.06,18.93,18.93,0,0,0,5.182-26.268,24.085,24.085,0,0,0-33.38-6.587,30.5,30.5,0,0,0-8.342,42.273A38.481,38.481,0,0,0,97.83,198.149a1.572,1.572,0,1,1,1.751,2.612ZM34.938,93.467a17.862,17.862,0,0,1,3.617-13.276A14.693,14.693,0,0,1,59.17,77.564,12.072,12.072,0,0,1,61.33,94.5a9.971,9.971,0,0,1-13.988,1.783A8.3,8.3,0,0,1,45.857,84.65,6.955,6.955,0,0,1,55.6,83.407a1.572,1.572,0,1,1-1.925,2.485,3.807,3.807,0,0,0-5.335.68,5.156,5.156,0,0,0,.92,7.221,6.835,6.835,0,0,0,9.576-1.221A8.927,8.927,0,0,0,57.247,80.05a11.551,11.551,0,0,0-16.2,2.067,14.828,14.828,0,0,0,2.651,20.806,18.955,18.955,0,0,0,26.56-3.386,24.086,24.086,0,0,0-4.3-33.75,30.465,30.465,0,0,0-42.742,5.448,38.519,38.519,0,0,0,6.881,53.976,1.573,1.573,0,1,1-1.925,2.488A41.624,41.624,0,0,1,20.723,69.31,33.612,33.612,0,0,1,67.878,63.3a27.2,27.2,0,0,1,4.862,38.163,22.074,22.074,0,0,1-30.97,3.948,17.852,17.852,0,0,1-6.831-11.943Zm38.34-53.157a41.671,41.671,0,0,1,50.614-30.048,33.653,33.653,0,0,1,24.266,40.875A27.231,27.231,0,0,1,121.843,71.63a27.391,27.391,0,0,1-6.767-.852,22.081,22.081,0,0,1-15.94-26.85A18,18,0,0,1,121,30.951a14.711,14.711,0,0,1,10.607,17.871,12.084,12.084,0,0,1-14.677,8.714,9.974,9.974,0,0,1-7.2-12.127,8.3,8.3,0,0,1,10.084-5.987,6.957,6.957,0,0,1,5.015,8.451,1.573,1.573,0,0,1-3.048-.776,3.808,3.808,0,0,0-2.745-4.626,5.146,5.146,0,0,0-6.257,3.717,6.829,6.829,0,0,0,4.927,8.3,8.93,8.93,0,0,0,10.855-6.443A11.568,11.568,0,0,0,120.221,34a14.842,14.842,0,0,0-18.035,10.707,18.932,18.932,0,0,0,13.666,23.023,24.084,24.084,0,0,0,29.257-17.368A30.5,30.5,0,0,0,123.116,13.31a38.522,38.522,0,0,0-46.79,27.776,1.573,1.573,0,1,1-3.048-.776ZM225.42,94.025a47.016,47.016,0,0,0-65.876-43.064c.109-1.3.179-2.616.179-3.948a47.013,47.013,0,1,0-94.025,0c0,1.332.07,2.647.179,3.948A47.012,47.012,0,1,0,36.286,139.8,47.009,47.009,0,1,0,112.71,194.04,47.009,47.009,0,1,0,189.134,139.8a47.021,47.021,0,0,0,36.286-45.77Z" fill="#fff"/></svg>