<svg xmlns="http://www.w3.org/2000/svg" xmlns:xlink="http://www.w3.org/1999/xlink" width="411" height="411" viewBox="0 0 411 411">
  <defs>
    <clipPath id="clip-line-crown1">
      <rect width="411" height="411"/>
    </clipPath>
  </defs>
  <g id="line-crown1" clip-path="url(#clip-line-crown1)">
    <rect width="411" height="411" fill="rgba(255,255,255,0)"/>
    <path id="_05" data-name="05" d="M2469.33,283.848H2299.518L2463.545,239.9a1.838,1.838,0,1,0-.953-3.55L2298.566,280.3l147.061-84.906a1.838,1.838,0,1,0-1.838-3.183l-147.062,84.907L2416.8,157.039a1.837,1.837,0,0,0-2.6-2.6L2294.129,274.516l84.907-147.062a1.837,1.837,0,0,0-3.182-1.838l-84.906,147.061,43.95-164.026a1.838,1.838,0,0,0-3.55-.952L2287.4,271.725V101.915a1.838,1.838,0,0,0-3.676,0v169.81L2239.772,107.7a1.838,1.838,0,0,0-3.551.952l43.951,164.026-84.906-147.061a1.837,1.837,0,0,0-3.183,1.838l84.907,147.062L2156.913,154.44a1.837,1.837,0,0,0-2.6,2.6l120.077,120.077-147.064-84.907a1.837,1.837,0,1,0-1.837,3.183L2272.553,280.3l-164.027-43.951a1.838,1.838,0,0,0-.951,3.55L2271.6,283.848H2101.79a1.838,1.838,0,1,0,0,3.675H2271.6l-164.027,43.951a1.838,1.838,0,0,0,.475,3.613,1.816,1.816,0,0,0,.476-.063l164.027-43.951L2125.49,375.98a1.837,1.837,0,1,0,1.837,3.183l147.064-84.907L2154.314,414.331a1.837,1.837,0,1,0,2.6,2.6L2276.99,296.854l-84.907,147.062a1.837,1.837,0,1,0,3.183,1.838l84.906-147.06L2236.22,462.718a1.838,1.838,0,0,0,1.3,2.251,1.819,1.819,0,0,0,.478.063,1.839,1.839,0,0,0,1.774-1.362l43.95-164.024v169.81a1.838,1.838,0,0,0,3.676,0V299.645l43.949,164.024a1.838,1.838,0,0,0,1.773,1.362,1.816,1.816,0,0,0,.478-.063,1.838,1.838,0,0,0,1.3-2.251l-43.95-164.024,84.906,147.06a1.837,1.837,0,1,0,3.182-1.838l-84.907-147.062L2414.205,416.93a1.837,1.837,0,1,0,2.6-2.6L2296.728,294.255l147.062,84.907a1.837,1.837,0,1,0,1.838-3.183l-147.061-84.907,164.026,43.951a1.819,1.819,0,0,0,.478.063,1.838,1.838,0,0,0,.475-3.613l-164.027-43.951H2469.33a1.838,1.838,0,1,0,0-3.675Z" transform="translate(-2079.608 -79.608)" fill="#fff"/>
  </g>
</svg>
