<svg xmlns="http://www.w3.org/2000/svg" width="311" height="233.314" viewBox="0 0 311 233.314"><g transform="translate(0)"><path d="M91.294,70.291c9.962,0,18.283,3.786,24.063,10.951,6.8,8.421,9.43,21.01,6.87,32.851a31.592,31.592,0,0,1-1.859,5.723c4.3-5.791,7.76-12.15,9.184-18.738,3.224-14.93-.047-30.742-8.54-41.267-7.075-8.77-17.312-13.4-29.6-13.4-13.238,0-24.635,5.663-32.091,15.944a43.678,43.678,0,0,0-6.1,38.567,59.962,59.962,0,0,0,7.826,15.138c-.232-.6-.448-1.2-.644-1.8a35.127,35.127,0,0,1,4.9-31.021C71.356,74.888,80.586,70.291,91.294,70.291Z" transform="translate(64.134 58.16)" fill="#fff"/><path d="M97.191,95.664c1.523-7.046-.009-14.5-4-19.441-3.29-4.078-8.062-6.233-13.8-6.233A18,18,0,0,0,64.4,77.426,20.467,20.467,0,0,0,61.543,95.5c2.355,7.213,9.16,14.112,13.9,18.254,1.8,1.453,3.224,2.542,4.108,3.2,3.585-2.488,15.507-11.4,17.643-21.291Z" transform="translate(75.928 87.718)" fill="#fff"/><path d="M171.276,41.339l-16.8,19.685s10.426,49.216-14.829,73.18C154.07,105.146,159.813,64.717,133.5,13.54c2.316,12.139,6.746,40.839,4.058,71.783-2.082,23.977-7.968,44.6-17.488,61.305a95.66,95.66,0,0,1-47.9,42.114c65.528,4.491,102.665-8.9,122.444-21.213,14.784-9.2,22.17-19.034,25.446-24.552-4.7-4.845-22.2-18.067-66.873-8.216,8.236-4.295,18.644-6.616,26.659-7.844,6.764-21.413,15.579-51.718-8.576-85.58Z" transform="translate(90.458 16.97)" fill="#fff"/><path d="M223.559,73.327c-4.2,5.964-11.625,14.2-24.2,22.03-17.479,10.881-48.155,22.6-99.161,22.6-9.428,0-19.561-.406-30.426-1.287,6.584,8.6,29.437,32.81,71.655,22.03,0,0-.27-8.8-4.876-12.731C136.548,125.966,208.275,126.735,223.559,73.327Z" transform="translate(87.441 91.9)" fill="#fff"/><path d="M22.939,94.154A84.432,84.432,0,0,1,.329,74.287c16.573,51.224,86.355,50.476,86.355,50.476-4.606,3.928-4.876,12.731-4.876,12.731,42.355,10.816,65.217-13.587,71.716-22.114-11.239.937-21.713,1.37-31.427,1.37-51.012,0-81.68-11.715-99.159-22.6Z" transform="translate(0.412 93.104)" fill="#fff"/><path d="M25.345,166.082c19.777,12.222,56.866,25.51,122.169,21.039a95.636,95.636,0,0,1-47.9-42.112c-9.522-16.7-15.406-37.328-17.488-61.305-2.494-28.691,1.133-55.447,3.522-68.872-24.62,49.8-18.82,89.246-4.673,117.753C55.722,108.621,66.148,59.4,66.148,59.4L49.352,39.72C25.2,73.582,34.011,103.887,40.776,125.3c8.015,1.228,18.421,3.549,26.661,7.844-46.688-10.3-63.7,4.61-67.437,8.817,3.486,5.658,10.956,15.23,25.345,24.122Z" transform="translate(0 18.589)" fill="#fff"/><path d="M53.933,21.713a4.064,4.064,0,1,0-4.065-4.063A4.063,4.063,0,0,0,53.933,21.713Z" transform="translate(62.499 17.026)" fill="#fff"/><path d="M42.091,13.567A4.064,4.064,0,1,0,38.026,9.5,4.065,4.065,0,0,0,42.091,13.567Z" transform="translate(47.658 6.817)" fill="#fff"/><path d="M34.275,21.533a4.064,4.064,0,1,0-4.063-4.065A4.064,4.064,0,0,0,34.275,21.533Z" transform="translate(37.865 16.8)" fill="#fff"/><path d="M29.167,30.189A4.064,4.064,0,1,0,25.1,26.126,4.063,4.063,0,0,0,29.167,30.189Z" transform="translate(31.46 27.649)" fill="#fff"/><path d="M25.559,25.14A4.064,4.064,0,1,0,21.5,21.075,4.064,4.064,0,0,0,25.559,25.14Z" transform="translate(26.941 21.321)" fill="#fff"/><path d="M60.378,13.446a3.657,3.657,0,1,0-3.657-3.657A3.657,3.657,0,0,0,60.378,13.446Z" transform="translate(71.088 7.685)" fill="#fff"/><path d="M71.063,7.316a3.658,3.658,0,1,0-3.657-3.659A3.659,3.659,0,0,0,71.063,7.316Z" transform="translate(84.48)" fill="#fff"/><path d="M80.442,13.446a3.657,3.657,0,1,0-3.659-3.657A3.656,3.656,0,0,0,80.442,13.446Z" transform="translate(96.232 7.685)" fill="#fff"/><path d="M86.211,21.08a3.657,3.657,0,1,0-3.657-3.657A3.657,3.657,0,0,0,86.211,21.08Z" transform="translate(103.465 17.253)" fill="#fff"/><path d="M103.384,10.648a3.657,3.657,0,1,0-5.169.205,3.658,3.658,0,0,0,5.169-.205Z" transform="translate(121.621 5.651)" fill="#fff"/><path d="M104.894,18.645a3.657,3.657,0,1,0-.969-5.081A3.657,3.657,0,0,0,104.894,18.645Z" transform="translate(129.456 14.992)" fill="#fff"/><path d="M113.182,27.72a3.657,3.657,0,1,0-5.167.2,3.66,3.66,0,0,0,5.167-.2Z" transform="translate(133.901 27.047)" fill="#fff"/><path d="M120.155,24.351a3.656,3.656,0,1,0-5.169.205,3.655,3.655,0,0,0,5.169-.205Z" transform="translate(142.64 22.828)" fill="#fff"/><path d="M93.364,16.692a3.657,3.657,0,1,0-3.657-3.657A3.657,3.657,0,0,0,93.364,16.692Z" transform="translate(112.429 11.753)" fill="#fff"/><path d="M108.522,61.489a6.772,6.772,0,1,1-6.771,6.773A6.772,6.772,0,0,1,108.522,61.489Zm3.139-13.747a3.138,3.138,0,1,1-3.139-3.139A3.138,3.138,0,0,1,111.661,47.742Zm-3.139-19.3a3.342,3.342,0,1,1-3.342,3.342A3.342,3.342,0,0,1,108.522,28.44ZM60.834,125.78C49.121,88.3,71.318,47.332,71.318,47.332L42.848,17.3c-2.044,10.009-7.375,40.447-4.5,73.455,4.4,50.463,24.994,83.962,61.229,99.713-10.063-8.439-26.668-24.372-32.335-41.715A46.977,46.977,0,0,1,73.8,107.265C81.884,96.118,94.216,89.98,108.522,89.98c13.306,0,24.419,5.052,32.134,14.613,9.094,11.271,12.614,28.13,9.184,44-3.585,16.6-18.671,31.379-29.378,40.073,33.793-16.427,53.052-49.3,57.292-97.908,2.805-32.157-2.183-61.873-4.331-72.64l-27.7,29.218s20.775,38.353,11.514,74.791C159.7,87.582,150.616,45.84,108.883,9.046,65.667,47.147,57.458,90.559,60.834,125.78Z" transform="translate(47.021 11.337)" fill="#fff"/></g></svg>