<svg width="57" height="57" viewBox="0 0 57 57" fill="none" xmlns="http://www.w3.org/2000/svg">
<g filter="url(#filter0_d_423_205)">
<rect x="3.99976" width="49" height="49" rx="11" fill="#FF564B"/>
</g>
<g clip-path="url(#clip0_423_205)">
<path d="M42.8698 9.52L42.7298 9.27L42.4798 9.13C42.3998 9.09 40.6298 8.12 37.9298 8.12C35.4808 8.12 31.7418 8.94 27.8498 12.84C27.2098 13.48 26.6098 14.12 26.0498 14.77L26.0398 14.75L16.1398 18.99C16.0298 19.04 15.9198 19.11 15.8298 19.2L12.2898 22.74C12.1098 22.92 11.9998 23.18 11.9998 23.44C11.9998 23.71 12.1098 23.96 12.2898 24.15L17.2398 29.1L13.7098 32.641C13.4198 32.92 13.3398 33.35 13.4898 33.731C13.6498 34.1 14.0098 34.34 14.4198 34.34H17.6598V37.59C17.6598 37.99 17.8998 38.361 18.2698 38.51C18.3998 38.561 18.5298 38.59 18.6598 38.59C18.9198 38.59 19.1698 38.481 19.3598 38.29L22.8998 34.76L27.8498 39.71C28.0398 39.9 28.2998 40 28.5608 40C28.8108 40 29.0708 39.9 29.2598 39.71L32.7998 36.17C32.8908 36.08 32.9598 35.981 33.0098 35.859L37.2498 25.96L37.2298 25.95C37.8778 25.388 38.5188 24.79 39.1598 24.15C46.6798 16.63 43.0198 9.81 42.8698 9.52ZM37.9298 10.12C39.5398 10.12 40.7418 10.55 41.2418 10.76C41.5998 11.58 42.4918 14.24 41.1798 17.66C40.0318 17.19 38.4298 16.35 37.0398 14.96C35.6498 13.57 34.8108 11.99 34.3398 10.8C35.5198 10.35 36.7098 10.12 37.9298 10.12ZM14.4098 23.44L17.1098 20.75L23.4598 18.03C20.7098 21.84 19.0598 25.391 18.2798 27.311L14.4098 23.44ZM19.6598 35.17V33.34C19.6598 32.79 19.2098 32.34 18.6598 32.34H16.8298L18.6598 30.52L21.4898 33.35L19.6598 35.17ZM19.8198 28.85C19.9898 28.412 20.2598 27.721 20.6598 26.862L25.1398 31.341C24.2798 31.732 23.5998 32.011 23.1498 32.181L19.8198 28.85ZM31.2498 34.891L28.5608 37.59L24.6898 33.721C26.6098 32.942 30.1598 31.29 33.9708 28.54L31.2498 34.891ZM27.0398 30.42L21.5798 24.95C23.1198 21.95 25.6198 17.89 29.2598 14.25C30.3298 13.18 31.4198 12.32 32.5308 11.67C33.0908 13.03 34.0508 14.8 35.6308 16.37C37.1918 17.94 38.9418 18.9 40.3108 19.47C39.7028 20.52 38.8728 21.62 37.7508 22.74C34.0998 26.38 30.0398 28.88 27.0398 30.42ZM34.2098 17.79C33.4298 17.01 32.4098 16.62 31.3908 16.62C30.3618 16.62 29.3398 17.01 28.5608 17.79C26.9998 19.35 26.9998 21.88 28.5608 23.44C29.3398 24.22 30.3598 24.62 31.3798 24.62C32.4098 24.62 33.4298 24.22 34.2098 23.44C35.7788 21.88 35.7788 19.35 34.2098 17.79ZM32.7998 22.03C32.4198 22.41 31.9198 22.62 31.3798 22.62C30.8498 22.62 30.3498 22.41 29.9708 22.03C29.1918 21.25 29.1918 19.98 29.9708 19.2C30.3498 18.82 30.8498 18.62 31.3908 18.62C31.9198 18.62 32.4198 18.82 32.7998 19.2C33.5798 19.98 33.5798 21.25 32.7998 22.03Z" fill="white"/>
</g>
<defs>
<filter id="filter0_d_423_205" x="-0.000244141" y="0" width="57" height="57" filterUnits="userSpaceOnUse" color-interpolation-filters="sRGB">
<feFlood flood-opacity="0" result="BackgroundImageFix"/>
<feColorMatrix in="SourceAlpha" type="matrix" values="0 0 0 0 0 0 0 0 0 0 0 0 0 0 0 0 0 0 127 0" result="hardAlpha"/>
<feOffset dy="4"/>
<feGaussianBlur stdDeviation="2"/>
<feComposite in2="hardAlpha" operator="out"/>
<feColorMatrix type="matrix" values="0 0 0 0 0 0 0 0 0 0 0 0 0 0 0 0 0 0 0.25 0"/>
<feBlend mode="normal" in2="BackgroundImageFix" result="effect1_dropShadow_423_205"/>
<feBlend mode="normal" in="SourceGraphic" in2="effect1_dropShadow_423_205" result="shape"/>
</filter>
<clipPath id="clip0_423_205">
<rect width="32" height="32" fill="white" transform="translate(11.9998 8)"/>
</clipPath>
</defs>
</svg>
