<svg xmlns="http://www.w3.org/2000/svg" xmlns:xlink="http://www.w3.org/1999/xlink" width="50" height="50" viewBox="0 0 50 50">
  <defs>
    <clipPath id="clip-discord">
      <rect width="50" height="50"/>
    </clipPath>
  </defs>
  <g id="discord" clip-path="url(#clip-discord)">
    <path id="Path_431" data-name="Path 431" d="M40.1,3.4A39.064,39.064,0,0,0,30.46.414.146.146,0,0,0,30.3.488a27.212,27.212,0,0,0-1.2,2.466,36.064,36.064,0,0,0-10.83,0A24.958,24.958,0,0,0,17.055.488.152.152,0,0,0,16.9.414,38.956,38.956,0,0,0,7.258,3.4a.138.138,0,0,0-.063.055,39.98,39.98,0,0,0-7,26.963.163.163,0,0,0,.062.111,39.283,39.283,0,0,0,11.829,5.979.153.153,0,0,0,.166-.055,28.076,28.076,0,0,0,2.42-3.936.15.15,0,0,0-.082-.209,25.869,25.869,0,0,1-3.7-1.761.152.152,0,0,1-.015-.252c.248-.186.5-.38.734-.575a.147.147,0,0,1,.153-.021,28.014,28.014,0,0,0,23.807,0,.146.146,0,0,1,.155.019c.237.2.486.391.736.577a.152.152,0,0,1-.013.252,24.275,24.275,0,0,1-3.7,1.759.151.151,0,0,0-.08.21,31.524,31.524,0,0,0,2.418,3.934.15.15,0,0,0,.166.056,39.152,39.152,0,0,0,11.847-5.979.152.152,0,0,0,.062-.109,39.718,39.718,0,0,0-7-26.963A.12.12,0,0,0,40.1,3.4ZM15.83,25.04a4.553,4.553,0,0,1-4.257-4.774,4.528,4.528,0,0,1,4.257-4.774,4.5,4.5,0,0,1,4.257,4.774A4.528,4.528,0,0,1,15.83,25.04Zm15.741,0a4.553,4.553,0,0,1-4.257-4.774,4.528,4.528,0,0,1,4.257-4.774,4.5,4.5,0,0,1,4.257,4.774A4.516,4.516,0,0,1,31.57,25.04Z" transform="translate(1.314 6.535)" fill="#fff"/>
  </g>
</svg>
