<svg xmlns="http://www.w3.org/2000/svg" width="37.579" height="42.552" viewBox="0 0 37.579 42.552">
  <path id="edit_document" d="M37.517,17.672a6.566,6.566,0,0,0-3.6-1.955V9.308L24.606,0H4.659A2.6,2.6,0,0,0,2,2.659V39.892a2.6,2.6,0,0,0,2.659,2.659H21.946a1.373,1.373,0,0,0,.944-.386l14.68-14.68C39.153,25.691,41.188,21.356,37.517,17.672ZM23.276,2.659H23.5l7.752,7.752v.226H24.606a1.212,1.212,0,0,1-1.33-1.33ZM12.638,33.244v6.649H4.713l-.053-.013V2.713l.013-.053H20.616V9.308A3.875,3.875,0,0,0,24.606,13.3h6.649v2.5a9.064,9.064,0,0,0-3.6,1.875L13.024,32.3A1.373,1.373,0,0,0,12.638,33.244ZM15.3,39.892V33.8l6.09,6.09ZM23.276,38l-6.09-6.09,8.75-8.75,6.09,6.09ZM35.629,25.651l-1.715,1.715-6.09-6.09,1.662-1.662a5.788,5.788,0,0,1,3.352-1.343,3.856,3.856,0,0,1,2.792,1.29C38.4,22.326,35.869,25.371,35.629,25.651Z" transform="translate(-2)" fill="#fff"/>
</svg>
