<svg xmlns="http://www.w3.org/2000/svg" width="52.158" height="52.158" viewBox="0 0 52.158 52.158"><g transform="translate(-4 -4)"><path d="M27.216,35.808V21.729c0-1.2-.709-1.949-2.312-1.672S22,21.536,22,22.737v16.4c0,1.483,1.243,1.863,2.863,1.595s3.656-1.4,3.656-2.6S27.216,37.6,27.216,35.808Z" transform="translate(5.471 4.863)" fill="#fff"/><path d="M24.912,12.17c-2.161.2-3.912,1.818-3.912,3.617s1.751,3.1,3.912,2.9,3.912-1.818,3.912-3.617S27.071,11.973,24.912,12.17Z" transform="translate(5.167 2.477)" fill="#fff"/><path d="M30.079,4A26.079,26.079,0,1,0,56.158,30.079,26.109,26.109,0,0,0,30.079,4Zm0,49.551A23.471,23.471,0,1,1,53.551,30.079,23.5,23.5,0,0,1,30.079,53.551Z" transform="translate(0 0)" fill="#fff"/></g></svg>