<svg xmlns="http://www.w3.org/2000/svg" width="33.407" height="38.973" viewBox="0 0 33.407 38.973">
  <path id="shopping_bag" d="M37.335,38.141l-1.321-4.657V14.919a1.391,1.391,0,0,0-1.392-1.392H30.446V10.743a9.743,9.743,0,1,0-19.487,0v2.784H6.784a1.391,1.391,0,0,0-1.392,1.392V33.484L4.071,38.141a1.393,1.393,0,0,0,1.321,1.832H36.014a1.392,1.392,0,0,0,1.321-1.832Zm-24.983-27.4a8.351,8.351,0,0,1,16.7,0v2.784h-16.7ZM6.784,14.919H34.622V33.014H6.784ZM5.392,38.581l1.193-4.176H34.82l1.194,4.176Z" transform="translate(-4 -1)" fill="#fff"/>
</svg>
