<svg xmlns="http://www.w3.org/2000/svg" xmlns:xlink="http://www.w3.org/1999/xlink" width="50" height="50" viewBox="0 0 50 50">
  <defs>
    <clipPath id="clip-twitter">
      <rect width="50" height="50"/>
    </clipPath>
  </defs>
  <g id="twitter" clip-path="url(#clip-twitter)">
    <g id="_553251884_Shape_5_xA0_Clipping_Path_1_" data-name="553251884_Shape_5_xA0_Clipping_Path_1_" transform="translate(5 5.5)">
      <g id="Group_53" data-name="Group 53">
        <path id="Path_426" data-name="Path 426" d="M38,7.672A14.1,14.1,0,0,1,33.758,8.9a7.784,7.784,0,0,0,3.248-4.329,14.3,14.3,0,0,1-4.69,1.9A7.19,7.19,0,0,0,26.924,4a7.615,7.615,0,0,0-7.386,7.824,8.3,8.3,0,0,0,.191,1.783A20.6,20.6,0,0,1,4.506,5.433a8.144,8.144,0,0,0-1,3.934,7.955,7.955,0,0,0,3.286,6.514A7.056,7.056,0,0,1,3.447,14.9c0,.033,0,.065,0,.1a7.732,7.732,0,0,0,5.925,7.673,6.995,6.995,0,0,1-3.336.133,7.461,7.461,0,0,0,6.9,5.434A14.221,14.221,0,0,1,2,31.482,20.059,20.059,0,0,0,13.321,35c13.584,0,21.014-11.923,21.014-22.263,0-.339-.008-.677-.021-1.013A15.514,15.514,0,0,0,38,7.672Z" fill="#fff"/>
      </g>
    </g>
  </g>
</svg>
