<svg width="205" height="154" viewBox="0 0 205 154" fill="none" xmlns="http://www.w3.org/2000/svg">
<path d="M20.5 30.75C20.5 20.5 30.75 20.5 30.75 20.5H205C205 9.225 195.775 0 184.5 0H20.5C9.225 0 0 9.225 0 20.5V133.25C0 144.525 9.225 153.75 20.5 153.75H184.5C195.775 153.75 205 144.525 205 133.25V41H30.75C30.75 41 20.5 41 20.5 30.75ZM112.75 112.75H174.25C179.888 112.75 184.5 117.362 184.5 123C184.5 128.638 179.888 133.25 174.25 133.25H112.75C107.112 133.25 102.5 128.638 102.5 123C102.5 117.362 107.112 112.75 112.75 112.75Z" fill="url(#paint0_linear_1369_157)"/>
<defs>
<linearGradient id="paint0_linear_1369_157" x1="-29.5" y1="-143.75" x2="-103.015" y2="75.4917" gradientUnits="userSpaceOnUse">
<stop stop-color="#4BFF73"/>
<stop offset="0.432292" stop-color="#EC39DA"/>
<stop offset="1" stop-color="#FFC224"/>
</linearGradient>
</defs>
</svg>
