<svg xmlns="http://www.w3.org/2000/svg" width="42.16" height="37.949" viewBox="0 0 42.16 37.949">
  <g id="warning" transform="translate(-5.422 -3.873)">
    <path id="Path_428" data-name="Path 428" d="M45.891,40.807,26.917,7.075a2.1,2.1,0,0,0-3.668,0L4.274,40.807a2.1,2.1,0,0,0,1.834,3.141H44.057a2.1,2.1,0,0,0,1.834-3.141ZM25.082,39.732a2.108,2.108,0,1,1,2.108-2.108A2.114,2.114,0,0,1,25.082,39.732ZM27.191,31.3a2.124,2.124,0,0,1-2.108,2.108A2.114,2.114,0,0,1,22.974,31.3V20.758a2.124,2.124,0,0,1,2.108-2.108,2.114,2.114,0,0,1,2.108,2.108Z" transform="translate(1.42 -2.127)" fill="#ffc224"/>
  </g>
</svg>
