<svg xmlns="http://www.w3.org/2000/svg" width="434" height="155" viewBox="0 0 434 155">
  <g id="minting-step" transform="translate(-12164 -9149)">
    <line id="Line_69" data-name="Line 69" x2="145" transform="translate(12312.5 9226.5)" fill="none" stroke="#fff" stroke-width="2"/>
    <g id="Group_48" data-name="Group 48">
      <g id="Ellipse_163" data-name="Ellipse 163" transform="translate(12164 9149)" fill="none" stroke="#ffc224" stroke-width="2">
        <circle cx="77.5" cy="77.5" r="77.5" stroke="none"/>
        <circle cx="77.5" cy="77.5" r="76.5" fill="none"/>
      </g>
      <g id="Ellipse_161" data-name="Ellipse 161" transform="translate(12171 9156)" fill="#ffc224" stroke="#ffc224" stroke-width="2">
        <circle cx="70.5" cy="70.5" r="70.5" stroke="none"/>
        <circle cx="70.5" cy="70.5" r="69.5" fill="none"/>
      </g>
      <path id="Presale" d="M3.674-9.492v2.355l4.1.009v-2.3ZM1.169-9.5H.439l.009-2.452h8.6a1.673,1.673,0,0,1,1.38,1.811l-.018,4.2A1.285,1.285,0,0,1,9.018-4.6H3.691v1.96Q3.6.009.773.009.615.009.448,0V-2.487a.64.64,0,0,0,.721-.694ZM16.084-7.137l.668.009h1.9v-2.3l-4.1-.062v2.355ZM18.413-4.6l.4.914a2.618,2.618,0,0,0,2.382,1.4h.167L21.357.105,19.389-.018q-1.38-.105-2.962-2.373L15.223-4.6h-.659v1.96Q14.476.009,11.646.009q-.158,0-.325-.009V-2.6q.694,0,.721-.58V-9.5h-.729l.009-2.452h8.6a1.673,1.673,0,0,1,1.38,1.811l-.018,4.2A1.285,1.285,0,0,1,19.89-4.6Zm4.271-7.374H32.7v2.5H25.937V-7.2h5.616l.009,2.575H25.91v.229q0,1.907,1.986,1.916H32.7V0L27.8.026Q23.335,0,23.335-3.516V-4.623h-.65l-.07-2.593L23.3-7.2V-9.466h-.615ZM43.093-9.519h-6.75l.009,2.373,4.131.026q2.61.088,2.663,2.5l-.053,2.136q0,2.487-2.575,2.5L33.855,0V-2.514l6.653.026V-4.623H36.36q-2.514,0-2.5-2.408l-.009-2.487q0-2.435,2.628-2.435l6.627.009Zm7.55,2.558-.527-2.558H48.4l-.519,2.566Zm.475,2.329-3.7.009L46.485.018,44.024-.475,45.861-9.51l-1.389-.009-.026-2.435H54.07l-.026,2.435H52.7L54.527-.5l-2.461.492ZM55.406,0V-2.5h.721l.018-9.457h2.487V-2.5h3.639a.688.688,0,0,0,.519-.7v-.026h2.584v.018q0,3.182-2.927,3.2ZM65.32-11.971H75.34v2.5H68.572V-7.2h5.616L74.2-4.623H68.546v.229q0,1.907,1.986,1.916H75.34V0l-4.9.026Q65.971,0,65.971-3.516V-4.623h-.65l-.07-2.593.686.018V-9.466H65.32Z" transform="translate(12203 9252)"/>
      <path id="_3000" data-name="3000" d="M18.013-20.616v4.223h-1.06v4l1.181-.03L18.013-8.1h-1.12v2.043Q16.893,0,9.2.045L.757,0V-4.269h8.28q3.421-.015,3.421-3.436V-8.1H2.725l.015-4.3h9.672v-4H.757v-4.223ZM31.378-4.48v-11.67H24.143V-4.48Zm-9.2,4.465q-2.331-.151-2.5-2.815L19.663-16.7q-.015-.227-.015-.439a3.454,3.454,0,0,1,2.013-3.481h12.2a3.454,3.454,0,0,1,2.013,3.481q0,.212-.015.439L35.844-2.831q-.167,2.664-2.5,2.815ZM49.119-4.48v-11.67H41.883V-4.48Zm-9.2,4.465q-2.331-.151-2.5-2.815L37.4-16.7q-.015-.227-.015-.439A3.454,3.454,0,0,1,39.4-20.616H51.6a3.454,3.454,0,0,1,2.013,3.481q0,.212-.015.439L53.584-2.831q-.167,2.664-2.5,2.815ZM66.859-4.48v-11.67H59.624V-4.48Zm-9.2,4.465q-2.331-.151-2.5-2.815L55.143-16.7q-.015-.227-.015-.439a3.454,3.454,0,0,1,2.013-3.481h12.2a3.454,3.454,0,0,1,2.013,3.481q0,.212-.015.439L71.324-2.831q-.167,2.664-2.5,2.815Z" transform="translate(12205 9230)"/>
    </g>
    <g id="Group_51" data-name="Group 51" transform="translate(-46)">
      <g id="Group_49" data-name="Group 49" transform="translate(-90)">
        <g id="Ellipse_162" data-name="Ellipse 162" transform="translate(12593 9156)" fill="none" stroke="#fff" stroke-width="2">
          <circle cx="70.5" cy="70.5" r="70.5" stroke="none"/>
          <circle cx="70.5" cy="70.5" r="69.5" fill="none"/>
        </g>
      </g>
      <path id="Path_412" data-name="Path 412" d="M-25.62-9.492v2.355l4.1.009v-2.3Zm-2.5-.009h-.729l.009-2.452h8.6a1.673,1.673,0,0,1,1.38,1.811l-.018,4.2a1.285,1.285,0,0,1-.393.992,1.285,1.285,0,0,1-1.007.353H-25.6v1.96Q-25.69.009-28.521.009q-.158,0-.325-.009V-2.487a.64.64,0,0,0,.528-.173.64.64,0,0,0,.193-.521Zm12.964-2.452q-.018.853-.018,1.626,0,6.047,1.16,7.022a3.967,3.967,0,0,0,2.355.686q.334,0,.712-.018l-.009-9.334,2.54.018L-8.411,0l-3.683.035Q-16.242,0-17.06-3.48q-.615-1.7-.615-7.058,0-.677.009-1.415Zm11.426,2.5V-7.08H.5V-9.457Zm-.035,6.539a22.577,22.577,0,0,0,3.542.677A.6.6,0,0,0,.123-2.32q.369-.255.369-1.31,0-.264-.009-.958H-3.735v1.415q-.018.132-.036.255ZM-6.521.009a3.767,3.767,0,0,1-.431-.026l-.009-2.47q.677,0,.721-.765V-4.588h-.721V-7.1l.721.018V-9.457l-.721-.009v-2.487H-.07q2.531.1,3.129.844L3.041-2.355A2.509,2.509,0,0,1,2.4-.76,2.755,2.755,0,0,1,1.055,0,4.6,4.6,0,0,1-.026.123,13.457,13.457,0,0,1-4.843-.624,2.233,2.233,0,0,1-6.521.009ZM3.938,0V-2.5h.721l.018-9.457H7.163V-2.5H10.8a.688.688,0,0,0,.519-.7v-.026H13.9v.018q0,3.182-2.927,3.2ZM15.311-11.953h2.5L17.8-2.927Q17.78,0,14.493,0h-.018V-2.663H14.5q.747,0,.791-.888Zm4.1,2.443H18.69v-2.443h7.664a3.136,3.136,0,0,1,2.479,3.278H26.244q-.035-.844-.729-.844-.1,0-.193.009h-3.4v3.551a4.129,4.129,0,0,0,.571,2.18A3.822,3.822,0,0,0,23.68-2.768a2.317,2.317,0,0,0,1.151.246q.185,0,.791-.044t1.661-1.521l1.573,1.96A5.262,5.262,0,0,1,24.293.1,4.558,4.558,0,0,1,22.43-.448a5.43,5.43,0,0,1-2.11-2.083,5.957,5.957,0,0,1-.87-3.261ZM-11.5,10.481h-6.75l.009,2.373,4.131.026q2.61.088,2.663,2.5l-.053,2.136q0,2.487-2.575,2.5L-20.738,20V17.486l6.653.026V15.377h-4.148q-2.514,0-2.5-2.408l-.009-2.487q0-2.435,2.628-2.435l6.627.009Zm7.55,2.558-.527-2.558H-6.192l-.519,2.566Zm.475,2.329-3.7.009-.932,4.641-2.461-.492,1.837-9.035-1.389-.009-.026-2.435H-.523l-.026,2.435H-1.894L-.066,19.5l-2.461.492ZM.813,20V17.5h.721l.018-9.457H4.039V17.5H7.677a.688.688,0,0,0,.519-.7v-.026H10.78v.018q0,3.182-2.927,3.2ZM10.727,8.029h10.02v2.5H13.979V12.8H19.6l.009,2.575H13.953V15.6q0,1.907,1.986,1.916h4.808V20l-4.9.026q-4.47-.026-4.47-3.542V15.377h-.65l-.07-2.593.686.018V10.534h-.615Z" transform="translate(12574 9242)" fill="#fff"/>
      <path id="Path_411" data-name="Path 411" d="M-18.028-20.586v4.193h-1.241L-26.111,0h-4.6L-23.9-16.393h-5.95a1.185,1.185,0,0,0-.893,1.211v.045h-4.45v-.03q0-5.374,5.041-5.4ZM-4.783-4.48V-16.15h-7.235V-4.48Zm-9.2,4.465q-2.331-.151-2.5-2.815L-16.5-16.7q-.015-.227-.015-.439A3.454,3.454,0,0,1-14.5-20.616H-2.3A3.454,3.454,0,0,1-.288-17.135q0,.212-.015.439L-.318-2.831Q-.484-.167-2.815-.015ZM12.957-4.48V-16.15H5.722V-4.48ZM3.754-.015Q1.423-.166,1.254-2.83L1.241-16.7q-.015-.227-.015-.439A3.454,3.454,0,0,1,3.239-20.62h12.2a3.454,3.454,0,0,1,2.013,3.481q0,.212-.015.439L17.422-2.831q-.167,2.664-2.5,2.815ZM30.7-4.48V-16.15H23.462V-4.48ZM21.5-.015Q19.163-.167,19-2.831L18.981-16.7q-.015-.227-.015-.439a3.454,3.454,0,0,1,2.013-3.481h12.2a3.454,3.454,0,0,1,2.013,3.481q0,.212-.015.439L35.163-2.831Q35-.167,32.665-.015Z" transform="translate(12574 9220)" fill="#fff"/>
    </g>
  </g>
</svg>
