<svg xmlns="http://www.w3.org/2000/svg" width="149.194" height="34.329" viewBox="0 0 149.194 34.329">
  <g id="OpenSea" transform="translate(-83 -150.1)">
    <path id="Path_413" data-name="Path 413" d="M212.914,187.406a9.1,9.1,0,0,1-4.291-1.03,7.912,7.912,0,0,1-4.222-7.14,7.9,7.9,0,0,1,1.133-4.188,8.151,8.151,0,0,1,3.09-2.918,9.006,9.006,0,0,1,4.291-1.03,8.87,8.87,0,0,1,4.257,1.03,7.365,7.365,0,0,1,3.055,2.918,7.9,7.9,0,0,1,1.133,4.188,8.107,8.107,0,0,1-1.133,4.222,8.309,8.309,0,0,1-3.055,2.918A8.87,8.87,0,0,1,212.914,187.406Zm0-3.536a4.089,4.089,0,0,0,3.158-1.27,4.745,4.745,0,0,0,1.2-3.364,4.688,4.688,0,0,0-1.2-3.364,4.04,4.04,0,0,0-3.158-1.27,4.215,4.215,0,0,0-3.193,1.236,5.432,5.432,0,0,0,0,6.729A4.024,4.024,0,0,0,212.914,183.87Z" transform="translate(-79.724 -13.791)" fill="#04111d"/>
    <path id="Path_414" data-name="Path 414" d="M264.316,182.691a4.4,4.4,0,0,1,1.613-1.442,5.009,5.009,0,0,1,2.437-.549,5.755,5.755,0,0,1,2.952.79,5.092,5.092,0,0,1,2.06,2.266,7.858,7.858,0,0,1,0,6.866,5.842,5.842,0,0,1-2.06,2.3,5.755,5.755,0,0,1-2.952.79,5.2,5.2,0,0,1-2.437-.549,4.327,4.327,0,0,1-1.613-1.408v5.527H260.3V180.872h4.017Zm5.733,4.5a2.951,2.951,0,0,0-.858-2.266,2.794,2.794,0,0,0-2.06-.824,2.907,2.907,0,0,0-2.06.824,3.145,3.145,0,0,0-.824,2.3,3.2,3.2,0,0,0,.824,2.3,2.8,2.8,0,0,0,2.06.824,2.907,2.907,0,0,0,2.06-.824A3.11,3.11,0,0,0,270.049,187.188Z" transform="translate(-116.434 -20.095)" fill="#04111d"/>
    <path id="Path_415" data-name="Path 415" d="M317.714,187.148c0,.378-.034.755-.069,1.133h-9.1a2.57,2.57,0,0,0,.79,1.819,2.51,2.51,0,0,0,1.716.618,2.115,2.115,0,0,0,2.094-1.236h4.291a5.25,5.25,0,0,1-1.2,2.231,5.859,5.859,0,0,1-2.128,1.579,7.09,7.09,0,0,1-2.884.584,7.44,7.44,0,0,1-3.433-.79,5.5,5.5,0,0,1-2.334-2.266,6.973,6.973,0,0,1-.858-3.433,6.866,6.866,0,0,1,.824-3.433,5.5,5.5,0,0,1,2.334-2.266,7.482,7.482,0,0,1,3.467-.79,7.283,7.283,0,0,1,3.4.755,5.463,5.463,0,0,1,2.3,2.2A6.686,6.686,0,0,1,317.714,187.148Zm-4.12-1.03a1.925,1.925,0,0,0-.721-1.579,2.758,2.758,0,0,0-1.751-.584,2.662,2.662,0,0,0-1.716.584,2.736,2.736,0,0,0-.858,1.613h5.046Z" transform="translate(-145.527 -20.227)" fill="#04111d"/>
    <path id="Path_416" data-name="Path 416" d="M357,180.9a4.835,4.835,0,0,1,3.673,1.442,5.422,5.422,0,0,1,1.373,3.948v7.381h-3.982V186.8a2.658,2.658,0,0,0-.687-1.957,2.356,2.356,0,0,0-1.819-.687,2.487,2.487,0,0,0-1.819.687,2.771,2.771,0,0,0-.687,1.957v6.866H349V181h4.017v1.682a4.168,4.168,0,0,1,1.648-1.3A5.672,5.672,0,0,1,357,180.9Z" transform="translate(-174.685 -20.227)" fill="#04111d"/>
    <path id="Path_417" data-name="Path 417" d="M400.154,187.406a8.9,8.9,0,0,1-3.261-.584,5.226,5.226,0,0,1-2.3-1.682,4.72,4.72,0,0,1-.893-2.678h4.291a2.084,2.084,0,0,0,.652,1.373,2.04,2.04,0,0,0,1.407.446,2.443,2.443,0,0,0,1.408-.378,1.351,1.351,0,0,0,.515-1.1,1.247,1.247,0,0,0-.412-.961,3.252,3.252,0,0,0-1-.618c-.378-.172-.961-.343-1.682-.584a15.729,15.729,0,0,1-2.609-.961,4.617,4.617,0,0,1-1.751-1.408,3.882,3.882,0,0,1-.721-2.437,4.04,4.04,0,0,1,1.682-3.467,8.176,8.176,0,0,1,8.754,0,4.416,4.416,0,0,1,1.785,3.5h-4.36a1.622,1.622,0,0,0-.584-1.2,2.006,2.006,0,0,0-1.373-.446,1.763,1.763,0,0,0-1.167.378,1.241,1.241,0,0,0-.446,1.064,1.3,1.3,0,0,0,.755,1.2,14.778,14.778,0,0,0,2.334.927,21.563,21.563,0,0,1,2.575,1,4.873,4.873,0,0,1,1.751,1.373,3.644,3.644,0,0,1,.721,2.334,4.514,4.514,0,0,1-.721,2.472,5.011,5.011,0,0,1-2.06,1.785A7.634,7.634,0,0,1,400.154,187.406Z" transform="translate(-204.039 -13.791)" fill="#04111d"/>
    <path id="Path_418" data-name="Path 418" d="M448.214,187.148c0,.378-.034.755-.069,1.133h-9.1a2.57,2.57,0,0,0,.79,1.819,2.51,2.51,0,0,0,1.716.618,2.115,2.115,0,0,0,2.094-1.236h4.291a5.25,5.25,0,0,1-1.2,2.231,5.859,5.859,0,0,1-2.128,1.579,7.091,7.091,0,0,1-2.884.584,7.44,7.44,0,0,1-3.433-.79,5.5,5.5,0,0,1-2.334-2.266,6.973,6.973,0,0,1-.858-3.433,6.866,6.866,0,0,1,.824-3.433,5.5,5.5,0,0,1,2.334-2.266,7.482,7.482,0,0,1,3.467-.79,7.283,7.283,0,0,1,3.4.755,5.463,5.463,0,0,1,2.3,2.2A6.686,6.686,0,0,1,448.214,187.148Zm-4.119-1.03a1.925,1.925,0,0,0-.721-1.579,2.758,2.758,0,0,0-1.751-.584,2.662,2.662,0,0,0-1.716.584,2.736,2.736,0,0,0-.858,1.613h5.046Z" transform="translate(-231.227 -20.227)" fill="#04111d"/>
    <path id="Path_419" data-name="Path 419" d="M477.2,187.188a7.329,7.329,0,0,1,.755-3.433,5.368,5.368,0,0,1,2.094-2.266A5.755,5.755,0,0,1,483,180.7a5.1,5.1,0,0,1,2.437.549,3.9,3.9,0,0,1,1.613,1.442v-1.785h4.016v12.667h-4.017v-1.785a4.258,4.258,0,0,1-1.648,1.442,5.009,5.009,0,0,1-2.437.549,5.473,5.473,0,0,1-5.012-3.09A7.717,7.717,0,0,1,477.2,187.188Zm9.818.034a3.081,3.081,0,0,0-.858-2.3,2.771,2.771,0,0,0-2.025-.824,2.907,2.907,0,0,0-2.06.824,3.062,3.062,0,0,0-.824,2.266,3.145,3.145,0,0,0,.824,2.3,2.944,2.944,0,0,0,4.085,0A2.9,2.9,0,0,0,487.018,187.223Z" transform="translate(-258.875 -20.095)" fill="#04111d"/>
    <path id="Path_420" data-name="Path 420" d="M117.329,167.265A17.165,17.165,0,1,1,100.165,150.1,17.171,17.171,0,0,1,117.329,167.265Z" fill="#2081e2"/>
    <path id="Path_421" data-name="Path 421" d="M107.647,188.131l.069-.1,4.463-6.969a.152.152,0,0,1,.275.034c.755,1.682,1.373,3.742,1.1,5.046a7.278,7.278,0,0,1-.893,1.922.748.748,0,0,1-.172.275.178.178,0,0,1-.137.069h-4.6A.19.19,0,0,1,107.647,188.131Z" transform="translate(-16.168 -20.283)" fill="#fff"/>
    <path id="Path_422" data-name="Path 422" d="M125.081,182.287v1.1c0,.069-.034.1-.1.137a5.271,5.271,0,0,0-2.025,1.373c-1.27,1.751-2.231,4.257-4.36,4.257h-8.96a5.751,5.751,0,0,1-5.733-5.767v-.1a.148.148,0,0,1,.137-.137h5.046a.184.184,0,0,1,.172.172,1.912,1.912,0,0,0,.172.961,1.745,1.745,0,0,0,1.579.961h2.472v-1.922H111.04a.154.154,0,0,1-.137-.24.474.474,0,0,0,.1-.137c.24-.343.549-.824.893-1.407a8.3,8.3,0,0,0,.618-1.236,1.675,1.675,0,0,0,.1-.24c.034-.137.1-.275.137-.378l.1-.309a5.787,5.787,0,0,0,.1-1.133,2.432,2.432,0,0,0-.034-.481c0-.172-.034-.343-.034-.515a2.01,2.01,0,0,0-.069-.446,4.862,4.862,0,0,0-.137-.687l-.034-.069a2.221,2.221,0,0,0-.137-.446,12.806,12.806,0,0,0-.481-1.373l-.206-.515c-.1-.24-.206-.481-.309-.687-.034-.1-.1-.172-.137-.275s-.1-.206-.137-.309l-.1-.206-.309-.549c-.034-.069.034-.172.1-.137l1.888.515h0l.24.069.275.069.1.034V171.1a.99.99,0,0,1,.961-1,.939.939,0,0,1,.961.961v1.648l.206.069a.034.034,0,0,1,.034.034,1.307,1.307,0,0,0,.206.172,1.494,1.494,0,0,0,.24.206c.172.137.412.343.652.549.069.069.137.1.172.172a13.581,13.581,0,0,1,1,1c.1.1.172.206.275.309s.172.24.275.343c.1.137.24.309.343.446a1.491,1.491,0,0,1,.137.24c.137.206.24.412.378.618.034.1.1.206.137.309a2.514,2.514,0,0,1,.275.858.373.373,0,0,1,.034.172h0a.669.669,0,0,1,.034.275,3.889,3.889,0,0,1-.034.893c-.034.137-.069.24-.1.378a2.608,2.608,0,0,1-.137.378,7.265,7.265,0,0,1-.378.721,3.164,3.164,0,0,1-.172.275,1.205,1.205,0,0,0-.172.275c-.069.1-.172.206-.24.309a1.886,1.886,0,0,1-.24.309c-.1.137-.24.275-.343.412a21407.7,21407.7,0,0,1-.481.481,2.223,2.223,0,0,1-.309.275l-.206.172a.126.126,0,0,1-.1.034h-1.51v1.922h1.888a1.706,1.706,0,0,0,1.133-.412c.1-.1.584-.515,1.167-1.133.034-.034.034-.034.069-.034l5.218-1.51C125.012,182.115,125.081,182.184,125.081,182.287Z" transform="translate(-13.725 -13.134)" fill="#fff"/>
  </g>
</svg>
