<svg width="1440" height="1143" viewBox="0 0 1440 1143" fill="none" xmlns="http://www.w3.org/2000/svg">
    <g opacity="0.25">
        <g filter="url(#filter0_f_447_3325)">
            <path
                d="M1357.57 708.594C1320.62 601.412 1198.77 513.522 1085.41 512.286L714.266 508.24C600.902 507.004 538.953 592.89 575.899 700.071C612.844 807.253 734.694 895.143 848.058 896.379L1219.2 900.425C1332.57 901.661 1394.51 815.775 1357.57 708.594Z"
                fill="url(#paint0_radial_447_3325)" fill-opacity="0.5" />
            <path
                d="M1357.57 708.594C1320.62 601.412 1198.77 513.522 1085.41 512.286L714.266 508.24C600.902 507.004 538.953 592.89 575.899 700.071C612.844 807.253 734.694 895.143 848.058 896.379L1219.2 900.425C1332.57 901.661 1394.51 815.775 1357.57 708.594Z"
                stroke="#00E29A" stroke-opacity="0.5" stroke-width="45.5046" />
        </g>
        <g style="mix-blend-mode:color" filter="url(#filter1_f_447_3325)">
            <rect width="704.574" height="457.463" rx="228.732"
                transform="matrix(-1 -8.6682e-08 0.465823 0.884878 1242.74 501.434)"
                fill="url(#paint1_radial_447_3325)" />
        </g>
        <g style="mix-blend-mode:screen" filter="url(#filter2_f_447_3325)">
            <path
                d="M908.901 420.347C748.776 321.101 477.165 297.344 302.241 367.285L77.4368 457.169C-97.4868 527.109 -109.483 664.261 50.643 763.507C210.769 862.753 482.38 886.509 657.303 816.569L882.107 726.685C1057.03 656.745 1069.03 519.592 908.901 420.347Z"
                fill="url(#paint2_radial_447_3325)" fill-opacity="0.9" />
        </g>
        <g filter="url(#filter3_f_447_3325)">
            <path
                d="M1357.95 559.848C1480.07 471.708 1461.62 366.911 1316.74 325.777L1233.68 302.195C1088.81 261.062 872.363 299.168 750.245 387.309C628.128 475.449 646.578 580.246 791.456 621.38L874.517 644.962C1019.39 686.095 1235.84 647.989 1357.95 559.848Z"
                fill="url(#paint3_angular_447_3325)" />
        </g>
        <g style="mix-blend-mode:lighten" filter="url(#filter4_f_447_3325)">
            <rect width="998.746" height="713.835" rx="356.917"
                transform="matrix(-0.997644 0.068602 0.52543 0.850837 1599.23 233.513)" fill="#FF4400"
                fill-opacity="0.9" />
        </g>
    </g>
    <defs>
        <filter id="filter0_f_447_3325" x="324.407" y="269.842" width="1284.65" height="868.981"
            filterUnits="userSpaceOnUse" color-interpolation-filters="sRGB">
            <feFlood flood-opacity="0" result="BackgroundImageFix" />
            <feBlend mode="normal" in="SourceGraphic" in2="BackgroundImageFix" result="shape" />
            <feGaussianBlur stdDeviation="108.436" result="effect1_foregroundBlur_447_3325" />
        </filter>
        <filter id="filter1_f_447_3325" x="412.462" y="292.841" width="1169.08" height="821.985"
            filterUnits="userSpaceOnUse" color-interpolation-filters="sRGB">
            <feFlood flood-opacity="0" result="BackgroundImageFix" />
            <feBlend mode="normal" in="SourceGraphic" in2="BackgroundImageFix" result="shape" />
            <feGaussianBlur stdDeviation="104.297" result="effect1_foregroundBlur_447_3325" />
        </filter>
        <filter id="filter2_f_447_3325" x="-300.181" y="88.9706" width="1559.91" height="1005.91"
            filterUnits="userSpaceOnUse" color-interpolation-filters="sRGB">
            <feFlood flood-opacity="0" result="BackgroundImageFix" />
            <feBlend mode="normal" in="SourceGraphic" in2="BackgroundImageFix" result="shape" />
            <feGaussianBlur stdDeviation="119.078" result="effect1_foregroundBlur_447_3325" />
        </filter>
        <filter id="filter3_f_447_3325" x="398.56" y="14.7097" width="1311.08" height="917.738"
            filterUnits="userSpaceOnUse" color-interpolation-filters="sRGB">
            <feFlood flood-opacity="0" result="BackgroundImageFix" />
            <feBlend mode="normal" in="SourceGraphic" in2="BackgroundImageFix" result="shape" />
            <feGaussianBlur stdDeviation="135.46" result="effect1_foregroundBlur_447_3325" />
        </filter>
        <filter id="filter4_f_447_3325" x="487.375" y="0.445068" width="1602.39" height="1142.01"
            filterUnits="userSpaceOnUse" color-interpolation-filters="sRGB">
            <feFlood flood-opacity="0" result="BackgroundImageFix" />
            <feBlend mode="normal" in="SourceGraphic" in2="BackgroundImageFix" result="shape" />
            <feGaussianBlur stdDeviation="128.276" result="effect1_foregroundBlur_447_3325" />
        </filter>
        <radialGradient id="paint0_radial_447_3325" cx="0" cy="0" r="1" gradientUnits="userSpaceOnUse"
            gradientTransform="translate(1137.64 702.526) rotate(72.0605) scale(887.859 1613.25)">
            <stop stop-color="#5AE9FD" />
            <stop offset="1" stop-color="#5AE9FD" stop-opacity="0" />
        </radialGradient>
        <radialGradient id="paint1_radial_447_3325" cx="0" cy="0" r="1" gradientUnits="userSpaceOnUse"
            gradientTransform="translate(352.287 228.732) rotate(90) scale(228.732 352.287)">
            <stop stop-color="#38FF70" />
            <stop offset="1" stop-color="#6C4C9E" />
        </radialGradient>
        <radialGradient id="paint2_radial_447_3325" cx="0" cy="0" r="1" gradientUnits="userSpaceOnUse"
            gradientTransform="translate(479.772 591.927) rotate(31.7906) scale(341.106 1182.63)">
            <stop stop-color="#8B78FF" />
            <stop offset="1" stop-color="#6349FF" stop-opacity="0.37" />
        </radialGradient>
        <radialGradient id="paint3_angular_447_3325" cx="0" cy="0" r="1" gradientUnits="userSpaceOnUse"
            gradientTransform="translate(1054.1 473.578) rotate(144.18) scale(272.692 247.782)">
            <stop stop-color="#EE4492" />
            <stop offset="1" stop-color="#EE4492" stop-opacity="0.1" />
        </radialGradient>
    </defs>
</svg>